<?xml version="1.0" encoding="utf-8"?>
<!-- Generator: Adobe Illustrator 19.1.0, SVG Export Plug-In . SVG Version: 6.00 Build 0)  -->
<svg version="1.1" id="Layer_1" xmlns="http://www.w3.org/2000/svg" xmlns:xlink="http://www.w3.org/1999/xlink" x="0px" y="0px"
	 viewBox="-243 328.9 792 144.3" style="enable-background:new -243 328.9 792 144.3;" xml:space="preserve">
<style type="text/css">
	.st0{fill:#231F20;}
</style>
<g>
	<path class="st0" d="M-51.3,366.9H-38l28,65.7h-15l-6-14.6h-27.5l-6,14.6h-14.6L-51.3,366.9z M-36.1,405.3l-8.7-21.1l-8.7,21.1
		L-36.1,405.3L-36.1,405.3z"/>
	<path class="st0" d="M9.2,380.5h-19.8v-13.2h54v13.2H23.4v52H9v-52H9.2z"/>
	<path class="st0" d="M56.6,367.3H71v25.8h26.5v-25.8h14.4v65.2H97.5v-26.2H71v26.2H56.6V367.3z"/>
	<path class="st0" d="M129.9,367.3h14.4v52.1h32.5v13.1h-46.9V367.3L129.9,367.3z"/>
	<path class="st0" d="M189.8,367.3H239v12.8h-34.9v13.2h30.7V406h-30.7v13.7h35.4v12.8h-49.6V367.3L189.8,367.3z"/>
	<path class="st0" d="M269.8,380.5H250v-13.2h54v13.2H284v52h-14.4v-52H269.8z"/>
	<path class="st0" d="M318,367.3h14.4v65.2H318V367.3z"/>
	<path class="st0" d="M347.9,400.1v-0.1c0-18.5,14.4-33.8,34.2-33.8c11.8,0,18.8,3.2,25.6,8.9l-9,10.9c-5.1-4.2-9.5-6.6-17-6.6
		c-10.5,0-18.8,9.2-18.8,20.4v0.1c0,11.9,8.2,20.7,19.8,20.7c5.2,0,9.9-1.3,13.5-3.9v-9.3h-14.4V395h28.4v28.4
		c-6.7,5.7-15.9,10.3-27.8,10.3C361.9,433.7,347.9,419.4,347.9,400.1z"/>
	<path class="st0" d="M426.3,367.3h49.2v12.8h-34.9v13.2h30.7V406h-30.7v13.7h35.4v12.8h-49.6V367.3L426.3,367.3z"/>
	<path class="st0" d="M491.1,367.3h13.2l30.6,40.2v-40.2H549v65.2h-12.2L505.2,391v41.5h-14.1L491.1,367.3L491.1,367.3z"/>
</g>
<g id="Final_Logo_Vector_15_">
	<path class="st0" d="M-185.1,429.8v-10.3h48.9c0-17.6-8.4-34.5-22.4-45.1l-12.7-9.8l-8.7-6.7l0,0l-25.9-19.9
		c-22.1,12.4-37.1,36-37.1,63.2c0,22.4,10.2,42.4,26.2,55.6v-37c0-20.8,9.9-40.9,26.5-53.6l2-1.6l8.4,6.6l-4.2,3.2
		c-7.3,5.5-13,12.7-16.7,20.8h42.4v10.3h-46.2c-1.2,4.7-1.9,9.5-1.9,14.3v24.2h48v10.3h-48v9.6c10.5,6,22.6,9.3,35.5,9.3
		c12.5,0,24.3-3.2,34.7-8.9v-34.5L-185.1,429.8L-185.1,429.8z"/>
	<path class="st0" d="M-136.3,337.6l-18.1,13.8l-8.4-6.6l15.7-12.1c-7.4-2.5-15.4-3.9-23.7-3.9c-8.6,0-16.9,1.5-24.5,4.2l24,18.3
		l0,0l8.4,6.6l0,0l10.5,8c16.6,12.8,26.5,32.8,26.5,53.7v37.7c16.6-13.2,27.2-33.6,27.2-56.3C-98.7,373.7-113.9,350-136.3,337.6z"/>
</g>
</svg>
